<svg width="124" height="70" viewBox="0 0 124 70" fill="none" xmlns="http://www.w3.org/2000/svg">
<path d="M39.4643 48.125C40.4976 48.125 41.3809 48.4 42.1143 48.95C42.8476 49.4833 43.3476 50.2833 43.6143 51.35L43.2643 51.45L43.4143 51C43.6309 50.5 43.9893 50.0333 44.4893 49.6C45.0059 49.15 45.5893 48.7917 46.2393 48.525C46.8893 48.2583 47.5476 48.125 48.2143 48.125C49.2643 48.125 50.1059 48.35 50.7393 48.8C51.3893 49.25 51.8559 49.8583 52.1393 50.625C52.4393 51.375 52.5893 52.225 52.5893 53.175V60.25C52.5893 60.45 52.5143 60.625 52.3643 60.775C52.2309 60.925 52.0559 61 51.8393 61C51.6226 61 51.4393 60.925 51.2893 60.775C51.1559 60.625 51.0893 60.45 51.0893 60.25V53.25C51.0893 52.5667 50.9809 51.9417 50.7643 51.375C50.5476 50.8083 50.2059 50.3583 49.7393 50.025C49.2726 49.6917 48.6476 49.525 47.8643 49.525C47.1809 49.525 46.5226 49.6917 45.8893 50.025C45.2726 50.3583 44.7643 50.8083 44.3643 51.375C43.9809 51.9417 43.7893 52.5667 43.7893 53.25V60.25C43.7893 60.45 43.7143 60.625 43.5643 60.775C43.4309 60.925 43.2559 61 43.0393 61C42.8226 61 42.6393 60.925 42.4893 60.775C42.3559 60.625 42.2893 60.45 42.2893 60.25V53.175C42.2893 52.4917 42.1893 51.875 41.9893 51.325C41.7893 50.775 41.4643 50.3417 41.0143 50.025C40.5643 49.6917 39.9559 49.525 39.1893 49.525C38.5059 49.525 37.8559 49.6917 37.2393 50.025C36.6393 50.3417 36.1476 50.775 35.7643 51.325C35.3976 51.875 35.2143 52.4917 35.2143 53.175V60.25C35.2143 60.45 35.1393 60.625 34.9893 60.775C34.8393 60.925 34.6643 61 34.4643 61C34.2309 61 34.0476 60.925 33.9143 60.775C33.7809 60.625 33.7143 60.45 33.7143 60.25V49.05C33.7143 48.85 33.7809 48.675 33.9143 48.525C34.0643 48.375 34.2476 48.3 34.4643 48.3C34.6809 48.3 34.8559 48.375 34.9893 48.525C35.1393 48.675 35.2143 48.85 35.2143 49.05V51.375L34.5393 52.3C34.5893 51.8 34.7476 51.3 35.0143 50.8C35.2976 50.3 35.6643 49.85 36.1143 49.45C36.5643 49.05 37.0726 48.7333 37.6393 48.5C38.2226 48.25 38.8309 48.125 39.4643 48.125ZM57.967 60.25C57.967 60.45 57.892 60.625 57.742 60.775C57.592 60.925 57.417 61 57.217 61C57.0003 61 56.817 60.925 56.667 60.775C56.5337 60.625 56.467 60.45 56.467 60.25V48.75C56.467 48.55 56.5337 48.375 56.667 48.225C56.817 48.075 57.0003 48 57.217 48C57.4337 48 57.6087 48.075 57.742 48.225C57.892 48.375 57.967 48.55 57.967 48.75V60.25ZM57.217 46.325C56.867 46.325 56.6003 46.25 56.417 46.1C56.2503 45.9333 56.167 45.7 56.167 45.4V45.15C56.167 44.85 56.2587 44.625 56.442 44.475C56.642 44.3083 56.9087 44.225 57.242 44.225C57.5587 44.225 57.8003 44.3083 57.967 44.475C58.1503 44.625 58.242 44.85 58.242 45.15V45.4C58.242 45.7 58.1503 45.9333 57.967 46.1C57.8003 46.25 57.5503 46.325 57.217 46.325ZM63.5137 60.25C63.5137 60.45 63.4387 60.625 63.2887 60.775C63.1387 60.925 62.9637 61 62.7637 61C62.547 61 62.3637 60.925 62.2137 60.775C62.0803 60.625 62.0137 60.45 62.0137 60.25V43.25C62.0137 43.05 62.0887 42.875 62.2387 42.725C62.3887 42.575 62.5637 42.5 62.7637 42.5C62.9803 42.5 63.1553 42.575 63.2887 42.725C63.4387 42.875 63.5137 43.05 63.5137 43.25V60.25ZM73.1563 61.25C71.8729 61.25 70.7396 60.975 69.7563 60.425C68.7729 59.875 68.0063 59.1083 67.4563 58.125C66.9063 57.1417 66.6313 55.9917 66.6313 54.675C66.6313 53.2583 66.9063 52.05 67.4563 51.05C68.0229 50.05 68.7479 49.2833 69.6313 48.75C70.5313 48.2 71.4813 47.925 72.4813 47.925C73.2146 47.925 73.9229 48.0583 74.6063 48.325C75.3063 48.575 75.9229 48.9583 76.4563 49.475C77.0063 49.975 77.4396 50.5917 77.7563 51.325C78.0896 52.0583 78.2729 52.9083 78.3063 53.875C78.2896 54.075 78.2063 54.25 78.0563 54.4C77.9063 54.5333 77.7313 54.6 77.5313 54.6H67.5063L67.2063 53.25H77.0563L76.7313 53.55V53.05C76.6646 52.2667 76.4146 51.6 75.9813 51.05C75.5479 50.5 75.0229 50.0833 74.4063 49.8C73.7896 49.5167 73.1479 49.375 72.4813 49.375C71.9813 49.375 71.4646 49.475 70.9313 49.675C70.4146 49.875 69.9396 50.1917 69.5063 50.625C69.0896 51.0417 68.7479 51.5833 68.4813 52.25C68.2146 52.9 68.0813 53.675 68.0813 54.575C68.0813 55.5583 68.2813 56.45 68.6813 57.25C69.0813 58.05 69.6563 58.6833 70.4063 59.15C71.1729 59.6167 72.0813 59.85 73.1313 59.85C73.7146 59.85 74.2396 59.7667 74.7063 59.6C75.1729 59.4333 75.5813 59.2167 75.9313 58.95C76.2813 58.6667 76.5729 58.375 76.8063 58.075C76.9896 57.925 77.1729 57.85 77.3563 57.85C77.5229 57.85 77.6646 57.9167 77.7813 58.05C77.9146 58.1833 77.9813 58.3333 77.9813 58.5C77.9813 58.7 77.8979 58.875 77.7313 59.025C77.2313 59.625 76.5813 60.15 75.7813 60.6C74.9813 61.0333 74.1063 61.25 73.1563 61.25ZM80.792 58.975C80.6587 58.775 80.592 58.5833 80.592 58.4C80.6087 58.2 80.717 58.0417 80.917 57.925C81.0503 57.8083 81.2003 57.7583 81.367 57.775C81.5503 57.7917 81.717 57.875 81.867 58.025C82.317 58.6083 82.8587 59.0833 83.492 59.45C84.142 59.8 84.9087 59.975 85.792 59.975C86.2587 59.975 86.717 59.9 87.167 59.75C87.6337 59.5833 88.017 59.3417 88.317 59.025C88.617 58.6917 88.767 58.275 88.767 57.775C88.767 57.2583 88.617 56.8417 88.317 56.525C88.017 56.2083 87.6253 55.9583 87.142 55.775C86.6753 55.5917 86.1753 55.4333 85.642 55.3C85.0753 55.15 84.5253 54.9833 83.992 54.8C83.4587 54.6 82.9837 54.3583 82.567 54.075C82.167 53.775 81.842 53.4167 81.592 53C81.342 52.5833 81.217 52.075 81.217 51.475C81.217 50.775 81.4087 50.1583 81.792 49.625C82.1753 49.0917 82.692 48.675 83.342 48.375C84.0087 48.075 84.7587 47.925 85.592 47.925C86.0087 47.925 86.4587 47.9833 86.942 48.1C87.4253 48.2 87.9003 48.375 88.367 48.625C88.8337 48.875 89.2503 49.2167 89.617 49.65C89.767 49.8 89.842 49.975 89.842 50.175C89.842 50.3583 89.7587 50.525 89.592 50.675C89.4587 50.775 89.3003 50.825 89.117 50.825C88.9503 50.825 88.8087 50.7583 88.692 50.625C88.292 50.175 87.817 49.8333 87.267 49.6C86.717 49.3667 86.1253 49.25 85.492 49.25C85.0087 49.25 84.5503 49.3333 84.117 49.5C83.7003 49.65 83.3503 49.8833 83.067 50.2C82.7837 50.5167 82.642 50.9333 82.642 51.45C82.6753 51.9333 82.842 52.325 83.142 52.625C83.4587 52.925 83.867 53.175 84.367 53.375C84.8837 53.575 85.4587 53.7583 86.092 53.925C86.6253 54.0583 87.1337 54.2167 87.617 54.4C88.117 54.5833 88.5503 54.8167 88.917 55.1C89.3003 55.3667 89.6003 55.7083 89.817 56.125C90.0503 56.5417 90.167 57.0667 90.167 57.7C90.167 58.4333 89.9587 59.0667 89.542 59.6C89.142 60.1333 88.6003 60.5417 87.917 60.825C87.2337 61.1083 86.4753 61.25 85.642 61.25C84.742 61.25 83.867 61.075 83.017 60.725C82.1837 60.375 81.442 59.7917 80.792 58.975Z" fill="black"/>
<path d="M8.8168 25C8.58346 25 8.40013 24.925 8.2668 24.775C8.13346 24.625 8.0668 24.45 8.0668 24.25V13.05C8.0668 12.85 8.13346 12.675 8.2668 12.525C8.4168 12.375 8.60013 12.3 8.8168 12.3C9.03346 12.3 9.20846 12.375 9.3418 12.525C9.4918 12.675 9.5668 12.85 9.5668 13.05V16.8L9.1918 16.875C9.2418 16.2917 9.38346 15.7167 9.6168 15.15C9.8668 14.5667 10.2001 14.0333 10.6168 13.55C11.0335 13.0667 11.5251 12.675 12.0918 12.375C12.6751 12.075 13.3251 11.925 14.0418 11.925C14.3418 11.925 14.6335 11.9917 14.9168 12.125C15.2001 12.2417 15.3418 12.4417 15.3418 12.725C15.3418 12.975 15.2751 13.1667 15.1418 13.3C15.0085 13.4333 14.8501 13.5 14.6668 13.5C14.5168 13.5 14.3501 13.4583 14.1668 13.375C14.0001 13.2917 13.7751 13.25 13.4918 13.25C13.0251 13.25 12.5585 13.3917 12.0918 13.675C11.6251 13.9417 11.2001 14.3083 10.8168 14.775C10.4335 15.2417 10.1251 15.7667 9.8918 16.35C9.67513 16.9167 9.5668 17.4917 9.5668 18.075V24.25C9.5668 24.45 9.4918 24.625 9.3418 24.775C9.1918 24.925 9.0168 25 8.8168 25ZM22.8994 25.25C21.6161 25.25 20.4827 24.975 19.4994 24.425C18.5161 23.875 17.7494 23.1083 17.1994 22.125C16.6494 21.1417 16.3744 19.9917 16.3744 18.675C16.3744 17.2583 16.6494 16.05 17.1994 15.05C17.7661 14.05 18.4911 13.2833 19.3744 12.75C20.2744 12.2 21.2244 11.925 22.2244 11.925C22.9577 11.925 23.6661 12.0583 24.3494 12.325C25.0494 12.575 25.6661 12.9583 26.1994 13.475C26.7494 13.975 27.1827 14.5917 27.4994 15.325C27.8327 16.0583 28.0161 16.9083 28.0494 17.875C28.0327 18.075 27.9494 18.25 27.7994 18.4C27.6494 18.5333 27.4744 18.6 27.2744 18.6H17.2494L16.9494 17.25H26.7994L26.4744 17.55V17.05C26.4077 16.2667 26.1577 15.6 25.7244 15.05C25.2911 14.5 24.7661 14.0833 24.1494 13.8C23.5327 13.5167 22.8911 13.375 22.2244 13.375C21.7244 13.375 21.2077 13.475 20.6744 13.675C20.1577 13.875 19.6827 14.1917 19.2494 14.625C18.8327 15.0417 18.4911 15.5833 18.2244 16.25C17.9577 16.9 17.8244 17.675 17.8244 18.575C17.8244 19.5583 18.0244 20.45 18.4244 21.25C18.8244 22.05 19.3994 22.6833 20.1494 23.15C20.9161 23.6167 21.8244 23.85 22.8744 23.85C23.4577 23.85 23.9827 23.7667 24.4494 23.6C24.9161 23.4333 25.3244 23.2167 25.6744 22.95C26.0244 22.6667 26.3161 22.375 26.5494 22.075C26.7327 21.925 26.9161 21.85 27.0994 21.85C27.2661 21.85 27.4077 21.9167 27.5244 22.05C27.6577 22.1833 27.7244 22.3333 27.7244 22.5C27.7244 22.7 27.6411 22.875 27.4744 23.025C26.9744 23.625 26.3244 24.15 25.5244 24.6C24.7244 25.0333 23.8494 25.25 22.8994 25.25ZM30.8381 11.95C30.9714 11.95 31.1048 11.9917 31.2381 12.075C31.3714 12.1583 31.4714 12.2833 31.5381 12.45L35.9131 22.85L35.5881 23.05L40.0631 12.45C40.1964 12.1167 40.4381 11.9583 40.7881 11.975C40.9548 11.975 41.1131 12.0333 41.2631 12.15C41.4131 12.25 41.4881 12.4 41.4881 12.6C41.4881 12.7 41.4714 12.7833 41.4381 12.85C41.4214 12.9 41.4048 12.9583 41.3881 13.025L36.4881 24.525C36.3548 24.825 36.1298 24.9833 35.8131 25C35.6631 25.0167 35.5131 24.9833 35.3631 24.9C35.2298 24.8 35.1298 24.675 35.0631 24.525L30.1381 13.025C30.1214 12.9917 30.1048 12.9417 30.0881 12.875C30.0714 12.8083 30.0631 12.7417 30.0631 12.675C30.0631 12.4917 30.1298 12.325 30.2631 12.175C30.3964 12.025 30.5881 11.95 30.8381 11.95ZM50.0234 25.25C48.7401 25.25 47.6068 24.975 46.6234 24.425C45.6401 23.875 44.8734 23.1083 44.3234 22.125C43.7734 21.1417 43.4984 19.9917 43.4984 18.675C43.4984 17.2583 43.7734 16.05 44.3234 15.05C44.8901 14.05 45.6151 13.2833 46.4984 12.75C47.3984 12.2 48.3484 11.925 49.3484 11.925C50.0818 11.925 50.7901 12.0583 51.4734 12.325C52.1734 12.575 52.7901 12.9583 53.3234 13.475C53.8734 13.975 54.3068 14.5917 54.6234 15.325C54.9568 16.0583 55.1401 16.9083 55.1734 17.875C55.1568 18.075 55.0734 18.25 54.9234 18.4C54.7734 18.5333 54.5984 18.6 54.3984 18.6H44.3734L44.0734 17.25H53.9234L53.5984 17.55V17.05C53.5318 16.2667 53.2818 15.6 52.8484 15.05C52.4151 14.5 51.8901 14.0833 51.2734 13.8C50.6568 13.5167 50.0151 13.375 49.3484 13.375C48.8484 13.375 48.3318 13.475 47.7984 13.675C47.2818 13.875 46.8068 14.1917 46.3734 14.625C45.9568 15.0417 45.6151 15.5833 45.3484 16.25C45.0818 16.9 44.9484 17.675 44.9484 18.575C44.9484 19.5583 45.1484 20.45 45.5484 21.25C45.9484 22.05 46.5234 22.6833 47.2734 23.15C48.0401 23.6167 48.9484 23.85 49.9984 23.85C50.5818 23.85 51.1068 23.7667 51.5734 23.6C52.0401 23.4333 52.4484 23.2167 52.7984 22.95C53.1484 22.6667 53.4401 22.375 53.6734 22.075C53.8568 21.925 54.0401 21.85 54.2234 21.85C54.3901 21.85 54.5318 21.9167 54.6484 22.05C54.7818 22.1833 54.8484 22.3333 54.8484 22.5C54.8484 22.7 54.7651 22.875 54.5984 23.025C54.0984 23.625 53.4484 24.15 52.6484 24.6C51.8484 25.0333 50.9734 25.25 50.0234 25.25ZM59.1342 25C58.9008 25 58.7175 24.925 58.5842 24.775C58.4508 24.625 58.3842 24.45 58.3842 24.25V13.05C58.3842 12.85 58.4508 12.675 58.5842 12.525C58.7342 12.375 58.9175 12.3 59.1342 12.3C59.3508 12.3 59.5258 12.375 59.6592 12.525C59.8092 12.675 59.8842 12.85 59.8842 13.05V16.8L59.5092 16.875C59.5592 16.2917 59.7008 15.7167 59.9342 15.15C60.1842 14.5667 60.5175 14.0333 60.9342 13.55C61.3508 13.0667 61.8425 12.675 62.4092 12.375C62.9925 12.075 63.6425 11.925 64.3592 11.925C64.6592 11.925 64.9508 11.9917 65.2342 12.125C65.5175 12.2417 65.6592 12.4417 65.6592 12.725C65.6592 12.975 65.5925 13.1667 65.4592 13.3C65.3258 13.4333 65.1675 13.5 64.9842 13.5C64.8342 13.5 64.6675 13.4583 64.4842 13.375C64.3175 13.2917 64.0925 13.25 63.8092 13.25C63.3425 13.25 62.8758 13.3917 62.4092 13.675C61.9425 13.9417 61.5175 14.3083 61.1342 14.775C60.7508 15.2417 60.4425 15.7667 60.2092 16.35C59.9925 16.9167 59.8842 17.4917 59.8842 18.075V24.25C59.8842 24.45 59.8092 24.625 59.6592 24.775C59.5092 24.925 59.3342 25 59.1342 25ZM67.2783 22.975C67.145 22.775 67.0783 22.5833 67.0783 22.4C67.095 22.2 67.2033 22.0417 67.4033 21.925C67.5367 21.8083 67.6867 21.7583 67.8533 21.775C68.0367 21.7917 68.2033 21.875 68.3533 22.025C68.8033 22.6083 69.345 23.0833 69.9783 23.45C70.6283 23.8 71.395 23.975 72.2783 23.975C72.745 23.975 73.2033 23.9 73.6533 23.75C74.12 23.5833 74.5033 23.3417 74.8033 23.025C75.1033 22.6917 75.2533 22.275 75.2533 21.775C75.2533 21.2583 75.1033 20.8417 74.8033 20.525C74.5033 20.2083 74.1117 19.9583 73.6283 19.775C73.1617 19.5917 72.6617 19.4333 72.1283 19.3C71.5617 19.15 71.0117 18.9833 70.4783 18.8C69.945 18.6 69.47 18.3583 69.0533 18.075C68.6533 17.775 68.3283 17.4167 68.0783 17C67.8283 16.5833 67.7033 16.075 67.7033 15.475C67.7033 14.775 67.895 14.1583 68.2783 13.625C68.6617 13.0917 69.1783 12.675 69.8283 12.375C70.495 12.075 71.245 11.925 72.0783 11.925C72.495 11.925 72.945 11.9833 73.4283 12.1C73.9117 12.2 74.3867 12.375 74.8533 12.625C75.32 12.875 75.7367 13.2167 76.1033 13.65C76.2533 13.8 76.3283 13.975 76.3283 14.175C76.3283 14.3583 76.245 14.525 76.0783 14.675C75.945 14.775 75.7867 14.825 75.6033 14.825C75.4367 14.825 75.295 14.7583 75.1783 14.625C74.7783 14.175 74.3033 13.8333 73.7533 13.6C73.2033 13.3667 72.6117 13.25 71.9783 13.25C71.495 13.25 71.0367 13.3333 70.6033 13.5C70.1867 13.65 69.8367 13.8833 69.5533 14.2C69.27 14.5167 69.1283 14.9333 69.1283 15.45C69.1617 15.9333 69.3283 16.325 69.6283 16.625C69.945 16.925 70.3533 17.175 70.8533 17.375C71.37 17.575 71.945 17.7583 72.5783 17.925C73.1117 18.0583 73.62 18.2167 74.1033 18.4C74.6033 18.5833 75.0367 18.8167 75.4033 19.1C75.7867 19.3667 76.0867 19.7083 76.3033 20.125C76.5367 20.5417 76.6533 21.0667 76.6533 21.7C76.6533 22.4333 76.445 23.0667 76.0283 23.6C75.6283 24.1333 75.0867 24.5417 74.4033 24.825C73.72 25.1083 72.9617 25.25 72.1283 25.25C71.2283 25.25 70.3533 25.075 69.5033 24.725C68.67 24.375 67.9283 23.7917 67.2783 22.975ZM81.1721 24.25C81.1721 24.45 81.0971 24.625 80.9471 24.775C80.7971 24.925 80.6221 25 80.4221 25C80.2054 25 80.0221 24.925 79.8721 24.775C79.7387 24.625 79.6721 24.45 79.6721 24.25V12.75C79.6721 12.55 79.7387 12.375 79.8721 12.225C80.0221 12.075 80.2054 12 80.4221 12C80.6387 12 80.8137 12.075 80.9471 12.225C81.0971 12.375 81.1721 12.55 81.1721 12.75V24.25ZM80.4221 10.325C80.0721 10.325 79.8054 10.25 79.6221 10.1C79.4554 9.93333 79.3721 9.7 79.3721 9.4V9.15C79.3721 8.85 79.4637 8.625 79.6471 8.475C79.8471 8.30833 80.1137 8.225 80.4471 8.225C80.7637 8.225 81.0054 8.30833 81.1721 8.475C81.3554 8.625 81.4471 8.85 81.4471 9.15V9.4C81.4471 9.7 81.3554 9.93333 81.1721 10.1C81.0054 10.25 80.7554 10.325 80.4221 10.325ZM91.1438 11.925C92.2771 11.925 93.2771 12.2083 94.1438 12.775C95.0271 13.3417 95.7271 14.125 96.2438 15.125C96.7604 16.1083 97.0188 17.25 97.0188 18.55C97.0188 19.8167 96.7604 20.9583 96.2438 21.975C95.7271 22.9917 95.0271 23.7917 94.1438 24.375C93.2604 24.9583 92.2688 25.25 91.1688 25.25C90.5854 25.25 90.0271 25.1583 89.4938 24.975C88.9771 24.7917 88.5021 24.55 88.0688 24.25C87.6354 23.9333 87.2521 23.5667 86.9188 23.15C86.5854 22.7333 86.3188 22.2833 86.1188 21.8L86.5688 21.475V24.3C86.5688 24.5167 86.4938 24.7 86.3438 24.85C86.2104 24.9833 86.0354 25.05 85.8188 25.05C85.6021 25.05 85.4188 24.9833 85.2688 24.85C85.1354 24.7 85.0688 24.5167 85.0688 24.3V7.275C85.0688 7.05833 85.1354 6.88333 85.2688 6.75C85.4021 6.6 85.5854 6.525 85.8188 6.525C86.0354 6.525 86.2104 6.6 86.3438 6.75C86.4938 6.88333 86.5688 7.05833 86.5688 7.275V15.65L86.2188 15.45C86.3854 14.9333 86.6271 14.4667 86.9438 14.05C87.2771 13.6167 87.6604 13.2417 88.0938 12.925C88.5271 12.6083 89.0021 12.3667 89.5187 12.2C90.0354 12.0167 90.5771 11.925 91.1438 11.925ZM91.0188 13.325C90.1188 13.325 89.3271 13.55 88.6438 14C87.9604 14.45 87.4188 15.0667 87.0188 15.85C86.6354 16.6333 86.4438 17.5333 86.4438 18.55C86.4438 19.55 86.6354 20.4583 87.0188 21.275C87.4188 22.075 87.9604 22.7083 88.6438 23.175C89.3271 23.625 90.1188 23.85 91.0188 23.85C91.9021 23.85 92.6771 23.6167 93.3438 23.15C94.0271 22.6833 94.5688 22.05 94.9688 21.25C95.3688 20.4333 95.5688 19.5333 95.5688 18.55C95.5688 17.5333 95.3688 16.6333 94.9688 15.85C94.5688 15.0667 94.0271 14.45 93.3438 14C92.6771 13.55 91.9021 13.325 91.0188 13.325ZM101.88 24.25C101.88 24.45 101.805 24.625 101.655 24.775C101.505 24.925 101.33 25 101.13 25C100.913 25 100.73 24.925 100.58 24.775C100.447 24.625 100.38 24.45 100.38 24.25V7.25C100.38 7.05 100.455 6.875 100.605 6.725C100.755 6.575 100.93 6.5 101.13 6.5C101.347 6.5 101.522 6.575 101.655 6.725C101.805 6.875 101.88 7.05 101.88 7.25V24.25ZM111.522 25.25C110.239 25.25 109.106 24.975 108.122 24.425C107.139 23.875 106.372 23.1083 105.822 22.125C105.272 21.1417 104.997 19.9917 104.997 18.675C104.997 17.2583 105.272 16.05 105.822 15.05C106.389 14.05 107.114 13.2833 107.997 12.75C108.897 12.2 109.847 11.925 110.847 11.925C111.581 11.925 112.289 12.0583 112.972 12.325C113.672 12.575 114.289 12.9583 114.822 13.475C115.372 13.975 115.806 14.5917 116.122 15.325C116.456 16.0583 116.639 16.9083 116.672 17.875C116.656 18.075 116.572 18.25 116.422 18.4C116.272 18.5333 116.097 18.6 115.897 18.6H105.872L105.572 17.25H115.422L115.097 17.55V17.05C115.031 16.2667 114.781 15.6 114.347 15.05C113.914 14.5 113.389 14.0833 112.772 13.8C112.156 13.5167 111.514 13.375 110.847 13.375C110.347 13.375 109.831 13.475 109.297 13.675C108.781 13.875 108.306 14.1917 107.872 14.625C107.456 15.0417 107.114 15.5833 106.847 16.25C106.581 16.9 106.447 17.675 106.447 18.575C106.447 19.5583 106.647 20.45 107.047 21.25C107.447 22.05 108.022 22.6833 108.772 23.15C109.539 23.6167 110.447 23.85 111.497 23.85C112.081 23.85 112.606 23.7667 113.072 23.6C113.539 23.4333 113.947 23.2167 114.297 22.95C114.647 22.6667 114.939 22.375 115.172 22.075C115.356 21.925 115.539 21.85 115.722 21.85C115.889 21.85 116.031 21.9167 116.147 22.05C116.281 22.1833 116.347 22.3333 116.347 22.5C116.347 22.7 116.264 22.875 116.097 23.025C115.597 23.625 114.947 24.15 114.147 24.6C113.347 25.0333 112.472 25.25 111.522 25.25Z" fill="black"/>
<path d="M8.8168 25C8.58346 25 8.40013 25.075 8.2668 25.225C8.13346 25.375 8.0668 25.55 8.0668 25.75V36.95C8.0668 37.15 8.13346 37.325 8.2668 37.475C8.4168 37.625 8.60013 37.7 8.8168 37.7C9.03346 37.7 9.20846 37.625 9.3418 37.475C9.4918 37.325 9.5668 37.15 9.5668 36.95V33.2L9.1918 33.125C9.2418 33.7083 9.38346 34.2833 9.6168 34.85C9.8668 35.4333 10.2001 35.9667 10.6168 36.45C11.0335 36.9333 11.5251 37.325 12.0918 37.625C12.6751 37.925 13.3251 38.075 14.0418 38.075C14.3418 38.075 14.6335 38.0083 14.9168 37.875C15.2001 37.7583 15.3418 37.5583 15.3418 37.275C15.3418 37.025 15.2751 36.8333 15.1418 36.7C15.0085 36.5667 14.8501 36.5 14.6668 36.5C14.5168 36.5 14.3501 36.5417 14.1668 36.625C14.0001 36.7083 13.7751 36.75 13.4918 36.75C13.0251 36.75 12.5585 36.6083 12.0918 36.325C11.6251 36.0583 11.2001 35.6917 10.8168 35.225C10.4335 34.7583 10.1251 34.2333 9.8918 33.65C9.67513 33.0833 9.5668 32.5083 9.5668 31.925V25.75C9.5668 25.55 9.4918 25.375 9.3418 25.225C9.1918 25.075 9.0168 25 8.8168 25ZM22.8994 24.75C21.6161 24.75 20.4827 25.025 19.4994 25.575C18.5161 26.125 17.7494 26.8917 17.1994 27.875C16.6494 28.8583 16.3744 30.0083 16.3744 31.325C16.3744 32.7417 16.6494 33.95 17.1994 34.95C17.7661 35.95 18.4911 36.7167 19.3744 37.25C20.2744 37.8 21.2244 38.075 22.2244 38.075C22.9577 38.075 23.6661 37.9417 24.3494 37.675C25.0494 37.425 25.6661 37.0417 26.1994 36.525C26.7494 36.025 27.1827 35.4083 27.4994 34.675C27.8327 33.9417 28.0161 33.0917 28.0494 32.125C28.0327 31.925 27.9494 31.75 27.7994 31.6C27.6494 31.4667 27.4744 31.4 27.2744 31.4H17.2494L16.9494 32.75H26.7994L26.4744 32.45V32.95C26.4077 33.7333 26.1577 34.4 25.7244 34.95C25.2911 35.5 24.7661 35.9167 24.1494 36.2C23.5327 36.4833 22.8911 36.625 22.2244 36.625C21.7244 36.625 21.2077 36.525 20.6744 36.325C20.1577 36.125 19.6827 35.8083 19.2494 35.375C18.8327 34.9583 18.4911 34.4167 18.2244 33.75C17.9577 33.1 17.8244 32.325 17.8244 31.425C17.8244 30.4417 18.0244 29.55 18.4244 28.75C18.8244 27.95 19.3994 27.3167 20.1494 26.85C20.9161 26.3833 21.8244 26.15 22.8744 26.15C23.4577 26.15 23.9827 26.2333 24.4494 26.4C24.9161 26.5667 25.3244 26.7833 25.6744 27.05C26.0244 27.3333 26.3161 27.625 26.5494 27.925C26.7327 28.075 26.9161 28.15 27.0994 28.15C27.2661 28.15 27.4077 28.0833 27.5244 27.95C27.6577 27.8167 27.7244 27.6667 27.7244 27.5C27.7244 27.3 27.6411 27.125 27.4744 26.975C26.9744 26.375 26.3244 25.85 25.5244 25.4C24.7244 24.9667 23.8494 24.75 22.8994 24.75ZM30.8381 38.05C30.9714 38.05 31.1048 38.0083 31.2381 37.925C31.3714 37.8417 31.4714 37.7167 31.5381 37.55L35.9131 27.15L35.5881 26.95L40.0631 37.55C40.1964 37.8833 40.4381 38.0417 40.7881 38.025C40.9548 38.025 41.1131 37.9667 41.2631 37.85C41.4131 37.75 41.4881 37.6 41.4881 37.4C41.4881 37.3 41.4714 37.2167 41.4381 37.15C41.4214 37.1 41.4048 37.0417 41.3881 36.975L36.4881 25.475C36.3548 25.175 36.1298 25.0167 35.8131 25C35.6631 24.9833 35.5131 25.0167 35.3631 25.1C35.2298 25.2 35.1298 25.325 35.0631 25.475L30.1381 36.975C30.1214 37.0083 30.1048 37.0583 30.0881 37.125C30.0714 37.1917 30.0631 37.2583 30.0631 37.325C30.0631 37.5083 30.1298 37.675 30.2631 37.825C30.3964 37.975 30.5881 38.05 30.8381 38.05ZM50.0234 24.75C48.7401 24.75 47.6068 25.025 46.6234 25.575C45.6401 26.125 44.8734 26.8917 44.3234 27.875C43.7734 28.8583 43.4984 30.0083 43.4984 31.325C43.4984 32.7417 43.7734 33.95 44.3234 34.95C44.8901 35.95 45.6151 36.7167 46.4984 37.25C47.3984 37.8 48.3484 38.075 49.3484 38.075C50.0818 38.075 50.7901 37.9417 51.4734 37.675C52.1734 37.425 52.7901 37.0417 53.3234 36.525C53.8734 36.025 54.3068 35.4083 54.6234 34.675C54.9568 33.9417 55.1401 33.0917 55.1734 32.125C55.1568 31.925 55.0734 31.75 54.9234 31.6C54.7734 31.4667 54.5984 31.4 54.3984 31.4H44.3734L44.0734 32.75H53.9234L53.5984 32.45V32.95C53.5318 33.7333 53.2818 34.4 52.8484 34.95C52.4151 35.5 51.8901 35.9167 51.2734 36.2C50.6568 36.4833 50.0151 36.625 49.3484 36.625C48.8484 36.625 48.3318 36.525 47.7984 36.325C47.2818 36.125 46.8068 35.8083 46.3734 35.375C45.9568 34.9583 45.6151 34.4167 45.3484 33.75C45.0818 33.1 44.9484 32.325 44.9484 31.425C44.9484 30.4417 45.1484 29.55 45.5484 28.75C45.9484 27.95 46.5234 27.3167 47.2734 26.85C48.0401 26.3833 48.9484 26.15 49.9984 26.15C50.5818 26.15 51.1068 26.2333 51.5734 26.4C52.0401 26.5667 52.4484 26.7833 52.7984 27.05C53.1484 27.3333 53.4401 27.625 53.6734 27.925C53.8568 28.075 54.0401 28.15 54.2234 28.15C54.3901 28.15 54.5318 28.0833 54.6484 27.95C54.7818 27.8167 54.8484 27.6667 54.8484 27.5C54.8484 27.3 54.7651 27.125 54.5984 26.975C54.0984 26.375 53.4484 25.85 52.6484 25.4C51.8484 24.9667 50.9734 24.75 50.0234 24.75ZM59.1342 25C58.9008 25 58.7175 25.075 58.5842 25.225C58.4508 25.375 58.3842 25.55 58.3842 25.75V36.95C58.3842 37.15 58.4508 37.325 58.5842 37.475C58.7342 37.625 58.9175 37.7 59.1342 37.7C59.3508 37.7 59.5258 37.625 59.6592 37.475C59.8092 37.325 59.8842 37.15 59.8842 36.95V33.2L59.5092 33.125C59.5592 33.7083 59.7008 34.2833 59.9342 34.85C60.1842 35.4333 60.5175 35.9667 60.9342 36.45C61.3508 36.9333 61.8425 37.325 62.4092 37.625C62.9925 37.925 63.6425 38.075 64.3592 38.075C64.6592 38.075 64.9508 38.0083 65.2342 37.875C65.5175 37.7583 65.6592 37.5583 65.6592 37.275C65.6592 37.025 65.5925 36.8333 65.4592 36.7C65.3258 36.5667 65.1675 36.5 64.9842 36.5C64.8342 36.5 64.6675 36.5417 64.4842 36.625C64.3175 36.7083 64.0925 36.75 63.8092 36.75C63.3425 36.75 62.8758 36.6083 62.4092 36.325C61.9425 36.0583 61.5175 35.6917 61.1342 35.225C60.7508 34.7583 60.4425 34.2333 60.2092 33.65C59.9925 33.0833 59.8842 32.5083 59.8842 31.925V25.75C59.8842 25.55 59.8092 25.375 59.6592 25.225C59.5092 25.075 59.3342 25 59.1342 25ZM67.2783 27.025C67.145 27.225 67.0783 27.4167 67.0783 27.6C67.095 27.8 67.2033 27.9583 67.4033 28.075C67.5367 28.1917 67.6867 28.2417 67.8533 28.225C68.0367 28.2083 68.2033 28.125 68.3533 27.975C68.8033 27.3917 69.345 26.9167 69.9783 26.55C70.6283 26.2 71.395 26.025 72.2783 26.025C72.745 26.025 73.2033 26.1 73.6533 26.25C74.12 26.4167 74.5033 26.6583 74.8033 26.975C75.1033 27.3083 75.2533 27.725 75.2533 28.225C75.2533 28.7417 75.1033 29.1583 74.8033 29.475C74.5033 29.7917 74.1117 30.0417 73.6283 30.225C73.1617 30.4083 72.6617 30.5667 72.1283 30.7C71.5617 30.85 71.0117 31.0167 70.4783 31.2C69.945 31.4 69.47 31.6417 69.0533 31.925C68.6533 32.225 68.3283 32.5833 68.0783 33C67.8283 33.4167 67.7033 33.925 67.7033 34.525C67.7033 35.225 67.895 35.8417 68.2783 36.375C68.6617 36.9083 69.1783 37.325 69.8283 37.625C70.495 37.925 71.245 38.075 72.0783 38.075C72.495 38.075 72.945 38.0167 73.4283 37.9C73.9117 37.8 74.3867 37.625 74.8533 37.375C75.32 37.125 75.7367 36.7833 76.1033 36.35C76.2533 36.2 76.3283 36.025 76.3283 35.825C76.3283 35.6417 76.245 35.475 76.0783 35.325C75.945 35.225 75.7867 35.175 75.6033 35.175C75.4367 35.175 75.295 35.2417 75.1783 35.375C74.7783 35.825 74.3033 36.1667 73.7533 36.4C73.2033 36.6333 72.6117 36.75 71.9783 36.75C71.495 36.75 71.0367 36.6667 70.6033 36.5C70.1867 36.35 69.8367 36.1167 69.5533 35.8C69.27 35.4833 69.1283 35.0667 69.1283 34.55C69.1617 34.0667 69.3283 33.675 69.6283 33.375C69.945 33.075 70.3533 32.825 70.8533 32.625C71.37 32.425 71.945 32.2417 72.5783 32.075C73.1117 31.9417 73.62 31.7833 74.1033 31.6C74.6033 31.4167 75.0367 31.1833 75.4033 30.9C75.7867 30.6333 76.0867 30.2917 76.3033 29.875C76.5367 29.4583 76.6533 28.9333 76.6533 28.3C76.6533 27.5667 76.445 26.9333 76.0283 26.4C75.6283 25.8667 75.0867 25.4583 74.4033 25.175C73.72 24.8917 72.9617 24.75 72.1283 24.75C71.2283 24.75 70.3533 24.925 69.5033 25.275C68.67 25.625 67.9283 26.2083 67.2783 27.025ZM81.1721 25.75C81.1721 25.55 81.0971 25.375 80.9471 25.225C80.7971 25.075 80.6221 25 80.4221 25C80.2054 25 80.0221 25.075 79.8721 25.225C79.7387 25.375 79.6721 25.55 79.6721 25.75V37.25C79.6721 37.45 79.7387 37.625 79.8721 37.775C80.0221 37.925 80.2054 38 80.4221 38C80.6387 38 80.8137 37.925 80.9471 37.775C81.0971 37.625 81.1721 37.45 81.1721 37.25V25.75ZM80.4221 39.675C80.0721 39.675 79.8054 39.75 79.6221 39.9C79.4554 40.0667 79.3721 40.3 79.3721 40.6V40.85C79.3721 41.15 79.4637 41.375 79.6471 41.525C79.8471 41.6917 80.1137 41.775 80.4471 41.775C80.7637 41.775 81.0054 41.6917 81.1721 41.525C81.3554 41.375 81.4471 41.15 81.4471 40.85V40.6C81.4471 40.3 81.3554 40.0667 81.1721 39.9C81.0054 39.75 80.7554 39.675 80.4221 39.675ZM91.1438 38.075C92.2771 38.075 93.2771 37.7917 94.1438 37.225C95.0271 36.6583 95.7271 35.875 96.2438 34.875C96.7604 33.8917 97.0188 32.75 97.0188 31.45C97.0188 30.1833 96.7604 29.0417 96.2438 28.025C95.7271 27.0083 95.0271 26.2083 94.1438 25.625C93.2604 25.0417 92.2688 24.75 91.1688 24.75C90.5854 24.75 90.0271 24.8417 89.4938 25.025C88.9771 25.2083 88.5021 25.45 88.0688 25.75C87.6354 26.0667 87.2521 26.4333 86.9188 26.85C86.5854 27.2667 86.3188 27.7167 86.1188 28.2L86.5688 28.525V25.7C86.5688 25.4833 86.4938 25.3 86.3438 25.15C86.2104 25.0167 86.0354 24.95 85.8188 24.95C85.6021 24.95 85.4188 25.0167 85.2688 25.15C85.1354 25.3 85.0688 25.4833 85.0688 25.7V42.725C85.0688 42.9417 85.1354 43.1167 85.2688 43.25C85.4021 43.4 85.5854 43.475 85.8188 43.475C86.0354 43.475 86.2104 43.4 86.3438 43.25C86.4938 43.1167 86.5688 42.9417 86.5688 42.725V34.35L86.2188 34.55C86.3854 35.0667 86.6271 35.5333 86.9438 35.95C87.2771 36.3833 87.6604 36.7583 88.0938 37.075C88.5271 37.3917 89.0021 37.6333 89.5187 37.8C90.0354 37.9833 90.5771 38.075 91.1438 38.075ZM91.0188 36.675C90.1188 36.675 89.3271 36.45 88.6438 36C87.9604 35.55 87.4188 34.9333 87.0188 34.15C86.6354 33.3667 86.4438 32.4667 86.4438 31.45C86.4438 30.45 86.6354 29.5417 87.0188 28.725C87.4188 27.925 87.9604 27.2917 88.6438 26.825C89.3271 26.375 90.1188 26.15 91.0188 26.15C91.9021 26.15 92.6771 26.3833 93.3438 26.85C94.0271 27.3167 94.5688 27.95 94.9688 28.75C95.3688 29.5667 95.5688 30.4667 95.5688 31.45C95.5688 32.4667 95.3688 33.3667 94.9688 34.15C94.5688 34.9333 94.0271 35.55 93.3438 36C92.6771 36.45 91.9021 36.675 91.0188 36.675ZM101.88 25.75C101.88 25.55 101.805 25.375 101.655 25.225C101.505 25.075 101.33 25 101.13 25C100.913 25 100.73 25.075 100.58 25.225C100.447 25.375 100.38 25.55 100.38 25.75V42.75C100.38 42.95 100.455 43.125 100.605 43.275C100.755 43.425 100.93 43.5 101.13 43.5C101.347 43.5 101.522 43.425 101.655 43.275C101.805 43.125 101.88 42.95 101.88 42.75V25.75ZM111.522 24.75C110.239 24.75 109.106 25.025 108.122 25.575C107.139 26.125 106.372 26.8917 105.822 27.875C105.272 28.8583 104.997 30.0083 104.997 31.325C104.997 32.7417 105.272 33.95 105.822 34.95C106.389 35.95 107.114 36.7167 107.997 37.25C108.897 37.8 109.847 38.075 110.847 38.075C111.581 38.075 112.289 37.9417 112.972 37.675C113.672 37.425 114.289 37.0417 114.822 36.525C115.372 36.025 115.806 35.4083 116.122 34.675C116.456 33.9417 116.639 33.0917 116.672 32.125C116.656 31.925 116.572 31.75 116.422 31.6C116.272 31.4667 116.097 31.4 115.897 31.4H105.872L105.572 32.75H115.422L115.097 32.45V32.95C115.031 33.7333 114.781 34.4 114.347 34.95C113.914 35.5 113.389 35.9167 112.772 36.2C112.156 36.4833 111.514 36.625 110.847 36.625C110.347 36.625 109.831 36.525 109.297 36.325C108.781 36.125 108.306 35.8083 107.872 35.375C107.456 34.9583 107.114 34.4167 106.847 33.75C106.581 33.1 106.447 32.325 106.447 31.425C106.447 30.4417 106.647 29.55 107.047 28.75C107.447 27.95 108.022 27.3167 108.772 26.85C109.539 26.3833 110.447 26.15 111.497 26.15C112.081 26.15 112.606 26.2333 113.072 26.4C113.539 26.5667 113.947 26.7833 114.297 27.05C114.647 27.3333 114.939 27.625 115.172 27.925C115.356 28.075 115.539 28.15 115.722 28.15C115.889 28.15 116.031 28.0833 116.147 27.95C116.281 27.8167 116.347 27.6667 116.347 27.5C116.347 27.3 116.264 27.125 116.097 26.975C115.597 26.375 114.947 25.85 114.147 25.4C113.347 24.9667 112.472 24.75 111.522 24.75Z" fill="black" fill-opacity="0.18"/>
</svg>
